<?xml version="1.0" standalone="no"?>
<!DOCTYPE svg PUBLIC "-//W3C//DTD SVG 20010904//EN"
 "http://www.w3.org/TR/2001/REC-SVG-20010904/DTD/svg10.dtd">
<svg version="1.0" xmlns="http://www.w3.org/2000/svg"
 width="225.000000pt" height="225.000000pt" viewBox="0 0 225.000000 225.000000"
 preserveAspectRatio="xMidYMid meet">

<g transform="translate(0.000000,225.000000) scale(0.100000,-0.100000)"
fill="#000000" stroke="none">
<path d="M1377 2169 c7 -7 15 -10 18 -7 3 3 -2 9 -12 12 -14 6 -15 5 -6 -5z"/>
<path d="M980 2165 c-8 -2 -32 -6 -52 -10 -21 -3 -38 -11 -38 -17 0 -6 8 -7
18 -3 13 5 14 4 5 -6 -10 -10 -15 -10 -27 0 -12 10 -24 7 -65 -14 -54 -27 -60
-32 -36 -32 8 0 15 4 15 8 0 11 59 29 75 23 7 -3 11 -12 8 -20 -4 -11 -9 -12
-19 -3 -9 7 -14 8 -14 1 0 -6 5 -12 11 -14 9 -3 9 -9 0 -25 -6 -12 -11 -28
-11 -35 0 -7 9 5 20 28 27 54 57 81 116 104 43 17 40 24 -6 15z"/>
<path d="M1414 2135 c8 -8 19 -15 25 -15 7 0 9 -14 6 -35 -3 -25 -1 -34 7 -29
7 4 8 3 4 -5 -4 -6 -11 -9 -16 -6 -5 3 -27 1 -49 -4 -35 -8 -42 -6 -56 13 -16
21 -16 21 -5 -2 16 -33 21 -64 9 -57 -5 4 -7 10 -5 14 3 4 -8 21 -25 37 -29
28 -29 26 10 -38 23 -38 46 -91 52 -120 33 -154 -48 -314 -199 -389 -62 -31
-75 -33 -162 -34 -77 0 -106 4 -152 23 -79 32 -160 108 -198 185 -34 70 -35
68 -16 -24 27 -125 102 -238 206 -307 235 -157 554 -87 703 155 92 148 90 366
-4 515 -32 49 -121 138 -139 138 -7 0 -5 -6 4 -15z"/>
<path d="M1157 2026 c10 -13 20 -20 21 -15 5 12 -17 39 -30 39 -5 0 -1 -11 9
-24z"/>
<path d="M1190 2010 c0 -5 5 -10 11 -10 5 0 7 5 4 10 -3 6 -8 10 -11 10 -2 0
-4 -4 -4 -10z"/>
<path d="M267 1086 c-148 -55 -170 -253 -38 -338 42 -27 52 -29 118 -26 54 2
79 9 100 24 26 19 28 27 31 98 l3 76 -86 0 -85 0 0 -29 c0 -28 2 -30 48 -33
43 -3 47 -5 50 -30 3 -22 -2 -29 -23 -34 -44 -11 -106 3 -132 28 -25 26 -39
82 -30 120 16 64 91 97 165 72 45 -16 46 -15 63 8 25 31 24 32 -18 52 -51 24
-120 29 -166 12z"/>
<path d="M1060 910 l0 -190 35 0 35 0 0 81 c0 86 8 112 41 129 16 9 26 8 45
-5 23 -15 24 -21 24 -110 l0 -95 40 0 40 0 0 88 c0 137 -18 178 -86 189 -27 4
-42 1 -64 -16 -34 -24 -42 -26 -39 -8 1 6 1 38 0 70 l-1 57 -35 0 -35 0 0
-190z"/>
<path d="M652 990 c-12 -5 -25 -16 -28 -25 -9 -22 -23 -18 -17 5 5 18 0 20
-36 20 l-41 0 0 -135 0 -135 40 0 40 0 0 83 c0 97 12 121 59 119 30 -1 31 1
31 39 0 41 -7 45 -48 29z"/>
<path d="M785 984 c-61 -31 -86 -97 -65 -172 21 -80 118 -120 185 -76 23 15
25 15 25 0 0 -12 10 -16 40 -16 l40 0 0 135 0 135 -40 0 c-29 0 -40 -4 -40
-15 0 -12 -6 -11 -32 5 -40 24 -73 25 -113 4z m128 -76 c22 -26 22 -86 0 -110
-24 -27 -87 -24 -107 4 -40 56 3 147 62 134 15 -4 35 -16 45 -28z"/>
<path d="M1421 983 c-77 -38 -92 -164 -26 -230 28 -28 40 -33 79 -33 26 0 58
7 71 16 23 15 25 15 25 0 0 -12 10 -16 40 -16 l40 0 0 135 0 135 -40 0 c-29 0
-40 -4 -40 -15 0 -12 -6 -11 -32 5 -40 24 -72 25 -117 3z m123 -64 c21 -16 26
-29 26 -64 0 -50 -24 -75 -72 -75 -66 0 -95 97 -42 139 15 12 34 21 44 21 10
0 29 -9 44 -21z"/>
<path d="M1806 979 c-21 -17 -26 -18 -26 -5 0 12 -10 16 -40 16 l-40 0 0 -135
0 -135 40 0 40 0 0 94 c0 73 4 98 16 110 19 20 24 20 52 0 20 -14 22 -23 22
-110 l0 -94 40 0 40 0 0 94 c0 73 4 98 16 110 19 20 24 20 52 0 20 -14 22 -23
22 -110 l0 -94 40 0 40 0 0 90 c0 100 -14 148 -51 174 -31 21 -67 20 -104 -2
-29 -18 -31 -18 -60 0 -39 23 -66 23 -99 -3z"/>
</g>
</svg>
