<?xml version="1.0" standalone="no"?>
<!DOCTYPE svg PUBLIC "-//W3C//DTD SVG 20010904//EN"
 "http://www.w3.org/TR/2001/REC-SVG-20010904/DTD/svg10.dtd">
<svg version="1.0" xmlns="http://www.w3.org/2000/svg"
 width="224.000000pt" height="224.000000pt" viewBox="0 0 224.000000 224.000000"
 preserveAspectRatio="xMidYMid meet">

<g transform="translate(0.000000,224.000000) scale(0.100000,-0.100000)"
fill="#000000" stroke="none">
<path d="M849 1867 c-26 -20 -36 -47 -69 -187 -17 -74 -42 -182 -56 -239 -36
-152 -39 -184 -19 -204 26 -27 59 -20 119 26 205 156 627 507 642 534 17 29
17 33 1 57 l-17 26 -293 0 c-214 -1 -296 -4 -308 -13z"/>
<path d="M256 904 c-11 -28 -6 -34 28 -34 l34 0 -13 -55 -12 -55 42 0 42 0 9
53 c9 51 10 52 47 55 20 2 37 7 37 12 0 5 3 15 6 24 5 14 -8 16 -104 16 -91 0
-111 -3 -116 -16z"/>
<path d="M477 848 c-10 -40 -17 -76 -17 -80 0 -5 18 -8 39 -8 33 0 40 4 45 25
4 16 13 25 26 25 15 0 20 -7 20 -25 0 -22 4 -25 40 -25 38 0 40 2 40 29 0 17
-5 33 -11 36 -6 5 -3 13 10 22 29 20 27 51 -5 63 -14 6 -58 10 -98 10 l-72 0
-17 -72z m132 28 c10 -12 8 -17 -8 -25 -24 -13 -51 -14 -51 -2 0 39 36 55 59
27z"/>
<path d="M715 908 c-2 -7 -10 -44 -18 -81 l-14 -68 40 3 40 3 18 75 c10 41 18
76 19 78 1 9 -81 0 -85 -10z"/>
<path d="M797 848 c-10 -40 -17 -76 -17 -80 0 -5 15 -8 34 -8 32 0 35 3 41 38
11 65 25 73 25 15 l0 -53 39 0 c33 0 40 4 50 28 14 32 56 85 48 60 -3 -9 -9
-33 -13 -52 -6 -36 -6 -36 29 -36 l35 0 16 71 c9 39 16 75 16 80 0 5 -26 9
-58 9 l-58 0 -21 -42 -21 -43 -7 43 -8 42 -56 0 -57 0 -17 -72z"/>
<path d="M2016 902 c-3 -5 1 -9 9 -9 8 0 12 4 9 9 -3 4 -7 8 -9 8 -2 0 -6 -4
-9 -8z"/>
<path d="M1991 884 c0 -11 3 -14 6 -6 3 7 2 16 -1 19 -3 4 -6 -2 -5 -13z"/>
<path d="M2016 858 c3 -5 10 -6 15 -3 13 9 11 12 -6 12 -8 0 -12 -4 -9 -9z"/>
<path d="M340 663 c-31 -11 -60 -47 -60 -74 0 -32 15 -46 55 -50 65 -5 93 1
119 27 32 33 33 68 4 88 -22 15 -87 20 -118 9z m68 -49 c3 -24 -24 -57 -42
-51 -16 5 -20 46 -5 63 17 20 43 13 47 -12z"/>
<path d="M501 633 c-24 -98 -25 -93 13 -93 25 0 35 5 39 20 4 16 14 20 50 20
46 0 77 21 77 53 0 25 -33 37 -104 37 l-65 0 -10 -37z m114 -3 c7 -11 -42 -37
-51 -27 -4 3 -4 13 -1 22 7 17 42 21 52 5z"/>
<path d="M696 654 c-9 -23 -8 -24 25 -24 33 0 33 -3 13 -72 -4 -15 1 -18 29
-18 32 0 35 3 43 43 8 38 12 42 40 45 22 2 34 9 37 23 5 18 -1 19 -88 19 -75
0 -94 -3 -99 -16z"/>
<path d="M887 608 l-14 -63 30 -3 c16 -2 31 -2 33 0 2 2 10 32 18 66 l14 62
-33 0 c-33 0 -34 -1 -48 -62z"/>
<path d="M980 613 c-7 -32 -14 -61 -17 -65 -2 -5 9 -8 25 -8 27 0 30 5 44 53
15 51 16 52 17 15 2 -54 10 -68 40 -68 21 0 31 9 50 45 13 25 26 44 28 42 2
-3 0 -23 -6 -46 -9 -41 -9 -41 20 -41 29 0 31 2 53 103 6 27 6 27 -42 27 -45
0 -50 -2 -68 -35 -19 -36 -34 -31 -34 13 0 20 -5 22 -49 22 l-50 0 -11 -57z"/>
<path d="M1256 633 c-11 -72 -9 -81 29 -92 32 -9 89 -2 114 14 14 8 25 35 36
83 7 33 6 33 -26 30 -29 -3 -33 -7 -43 -48 -9 -36 -16 -46 -34 -48 -22 -3 -23
-1 -17 30 3 18 9 41 11 51 4 14 -1 17 -29 17 -32 0 -35 -3 -41 -37z"/>
<path d="M1479 636 l21 -34 -37 -31 -38 -31 35 0 c20 0 42 8 56 21 l22 21 7
-21 c5 -17 15 -21 46 -21 42 0 43 5 10 43 -15 18 -13 21 21 53 l38 34 -32 0
c-18 0 -41 -9 -54 -21 l-22 -21 -7 21 c-5 17 -15 21 -46 21 l-41 0 21 -34z"/>
</g>
</svg>
