<?xml version="1.0" standalone="no"?>
<!DOCTYPE svg PUBLIC "-//W3C//DTD SVG 20010904//EN"
 "http://www.w3.org/TR/2001/REC-SVG-20010904/DTD/svg10.dtd">
<svg version="1.0" xmlns="http://www.w3.org/2000/svg"
 width="787.000000pt" height="789.000000pt" viewBox="0 0 787.000000 789.000000"
 preserveAspectRatio="xMidYMid meet">

<g transform="translate(0.000000,789.000000) scale(0.100000,-0.100000)"
fill="#000000" stroke="none">
<path d="M1872 5938 c3 -7 182 -559 398 -1225 l394 -1213 353 0 c194 0 353 3
353 6 0 4 -90 282 -199 618 -110 336 -288 884 -397 1219 l-198 607 -354 0
c-279 0 -353 -3 -350 -12z"/>
<path d="M3466 5928 c6 -22 284 -880 325 -1006 12 -35 23 -62 25 -60 2 3 263
800 350 1071 5 16 -16 17 -351 17 l-356 0 7 -22z"/>
<path d="M5050 5946 c0 -4 -268 -830 -609 -1877 -100 -305 -181 -558 -181
-562 0 -4 159 -7 353 -7 l353 0 393 1213 c217 666 396 1218 398 1225 4 9 -70
12 -351 12 -196 0 -356 -2 -356 -4z"/>
<path d="M3810 2729 c-25 -5 -74 -23 -110 -41 l-64 -33 -69 -213 -69 -214 28
-56 c38 -77 110 -146 192 -185 63 -30 73 -32 182 -32 108 0 119 2 182 32 126
59 207 164 227 294 45 280 -205 505 -499 448z m141 -200 c43 -15 97 -65 115
-106 34 -79 6 -188 -62 -239 -32 -25 -47 -29 -99 -29 -104 0 -170 62 -183 171
-9 81 37 161 113 195 47 22 70 23 116 8z"/>
<path d="M1220 2340 l0 -380 100 0 100 0 0 171 0 171 29 29 c36 36 73 37 106
4 25 -24 25 -27 25 -200 l0 -175 101 0 100 0 -3 228 c-3 217 -4 229 -26 264
-60 96 -188 113 -290 38 l-42 -30 0 130 0 130 -100 0 -100 0 0 -380z"/>
<path d="M2420 2713 c0 -5 40 -132 89 -283 49 -151 104 -319 121 -373 l31 -98
106 3 106 3 71 202 c39 112 73 203 76 203 3 0 37 -91 76 -203 l71 -202 106 -3
106 -3 31 98 c17 54 71 222 121 373 49 152 89 279 89 283 0 4 -53 7 -117 7
l-118 0 -38 -133 c-81 -280 -78 -273 -92 -246 -7 13 -39 104 -71 202 l-59 178
-104 -3 -105 -3 -65 -197 c-36 -109 -68 -198 -71 -198 -3 0 -22 60 -43 133
-21 72 -47 162 -59 200 l-20 67 -119 0 c-65 0 -119 -3 -119 -7z"/>
<path d="M4260 2660 c0 -47 5 -68 25 -98 81 -123 83 -291 4 -430 -25 -45 -29
-62 -27 -110 l3 -57 112 -3 113 -3 2 198 3 197 158 -198 158 -197 97 3 97 3 3
378 2 377 -110 0 -110 0 -2 -184 -3 -185 -149 185 -148 184 -114 0 -114 0 0
-60z"/>
<path d="M5040 2340 l0 -380 138 0 c236 0 348 21 445 82 l47 30 0 134 0 134
-24 0 c-16 0 -27 7 -30 20 -3 11 -8 28 -11 39 -4 14 1 20 23 24 41 8 82 44 82
73 0 21 -4 24 -40 24 l-40 0 0 65 c0 62 -1 65 -31 80 -77 41 -175 55 -371 55
l-188 0 0 -380z m410 158 c77 -40 108 -110 89 -200 -19 -86 -102 -138 -221
-138 l-48 0 0 180 0 180 68 0 c51 0 79 -6 112 -22z"/>
<path d="M5850 2618 c0 -57 -5 -120 -11 -141 -12 -46 -58 -100 -99 -117 l-30
-12 0 -195 0 -194 113 3 112 3 3 113 3 112 38 0 c37 0 39 -2 115 -115 l76
-115 131 0 c85 0 128 3 124 10 -4 6 -42 62 -86 126 -43 64 -79 119 -79 122 0
4 20 19 45 34 24 14 56 46 72 69 26 39 28 50 28 139 0 89 -2 100 -28 138 -61
93 -150 122 -374 122 l-153 0 0 -102z m289 -103 c32 -16 41 -33 41 -75 0 -70
-34 -90 -155 -90 l-85 0 0 90 0 90 85 0 c56 0 96 -5 114 -15z"/>
<path d="M6312 2691 c81 -52 127 -132 128 -224 0 -40 9 -64 55 -142 l55 -93 0
-136 0 -136 120 0 120 0 0 138 0 138 140 238 c77 131 140 240 140 242 0 3 -57
3 -127 2 l-127 -3 -70 -132 c-38 -73 -72 -133 -75 -133 -3 0 -37 61 -76 135
l-70 135 -129 0 -130 0 46 -29z"/>
<path d="M840 2586 l0 -95 -52 -3 -53 -3 -3 -87 -3 -87 53 -3 53 -3 5 -132 c6
-147 15 -172 81 -205 38 -20 170 -25 213 -8 25 9 26 13 26 86 l0 76 -40 -7
c-30 -5 -47 -2 -65 9 -23 15 -25 22 -25 101 l0 85 65 0 65 0 0 90 0 90 -65 0
-65 0 0 95 0 95 -95 0 -95 0 0 -94z"/>
<path d="M2047 2530 c-88 -22 -146 -69 -189 -150 -19 -38 -23 -60 -23 -140 0
-88 2 -99 31 -150 34 -62 100 -113 167 -131 58 -16 194 -7 237 15 35 18 100
74 100 86 0 4 -23 26 -50 49 l-50 42 -31 -22 c-67 -47 -148 -42 -193 12 -14
17 -26 35 -26 40 0 5 81 9 191 9 l192 0 -7 64 c-10 97 -33 154 -85 206 -64 63
-173 92 -264 70z m112 -154 c25 -13 51 -52 51 -76 0 -6 -41 -10 -95 -10 -60 0
-95 4 -95 10 0 20 30 69 47 79 25 15 59 13 92 -3z"/>
</g>
</svg>
